<?xml version="1.0" encoding="utf-8"?>
<!-- Generator: Adobe Illustrator 18.0.0, SVG Export Plug-In . SVG Version: 6.00 Build 0)  -->
<!DOCTYPE svg PUBLIC "-//W3C//DTD SVG 1.1//EN" "http://www.w3.org/Graphics/SVG/1.1/DTD/svg11.dtd">
<svg version="1.1" id="Layer_1" xmlns="http://www.w3.org/2000/svg" xmlns:xlink="http://www.w3.org/1999/xlink" x="0px" y="0px"
	 viewBox="0 0 2834.6 2834.6" enable-background="new 0 0 2834.6 2834.6" xml:space="preserve">
<g>
	<g>
		<path fill="#FFFFFF" d="M1764.1,1882c-2.5,0-2.5-21.2,0-21.2h119.6c5.1,0,6.8-2.5,5.1-4.2L1575,1408.8v446.1
			c0,4.2,2.5,5.1,8.5,5.1h114.5c2.5,0,2.5,21.2,0,21.2h-413.9c-2.5,0-2.5-21.2,0-21.2h116.2c2.5,0,5.1-1.7,5.1-5.1V953.3
			c0-4.2-2.5-5.1-5.1-5.1h-116.2c-2.5,0-2.5-21.2,0-21.2h413.9c2.5,0,2.5,21.2,0,21.2h-114.5c-5.1,0-8.5,1.7-8.5,5.1v447.8l329-396
			c45.8-52.6,43.3-56.8,34.8-56.8h-105.2c-2.5,0-2.5-21.2,0-21.2h256.1c1.7,0,1.7,21.2,0,21.2h-102.6c-11,0-13.6,5.1-57.7,56.8
			l-241.7,290l402.8,562.3c1.7,1.7,8.5,4.2,11.9,4.2h127.2c4.2,0,4.2,21.2,0,21.2h-465.6V1882z M1148.4,1901.5
			c0,4.2-20.4,4.2-21.2,0L732,952.5c-1.7-4.2-4.2-5.1-11-5.1H599.7c-2.5,0-2.5-21.2,0-21.2H1050c2.5,0,2.5,21.2,0,21.2H919.4
			c-5.1,0-8.5,1.7-6.8,5.1l335.8,826.9L1148.4,1901.5z M1415.5,269C782,269,269,782,269,1415.5S782,2562.1,1415.5,2562.1
			S2562.1,2049,2562.1,1415.5S2049,269,1415.5,269"/>
	</g>
</g>
</svg>
