<?xml version="1.0" encoding="UTF-8" standalone="no"?>
<svg
   xmlns:svg="http://www.w3.org/2000/svg"
   xmlns="http://www.w3.org/2000/svg"
   xmlns:xlink="http://www.w3.org/1999/xlink"
   version="1.1"
   id="Layer_1"
   x="0px"
   y="0px"
   viewBox="0 0 80 80"
   xml:space="preserve"
   width="80"
   height="80"><g
     id="g3337"
     style="fill:#ffffff"
     transform="matrix(0.29585799,0,0,0.29585799,-102.01183,-67.07101)"><defs
       id="defs3339"><rect
         id="SVGID_1_"
         x="91"
         y="226.7"
         width="778"
         height="506.70001" /></defs><clipPath
       id="SVGID_2_"><use
         xlink:href="#SVGID_1_"
         overflow="visible"
         id="use3343"
         style="overflow:visible"
         x="0"
         y="0"
         width="100%"
         height="100%" /></clipPath><path
       clip-path="url(#SVGID_2_)"
       d="m 521.1,416.9 c -0.3,0 -0.3,-2.5 0,-2.5 l 14.1,0 c 0.6,0 0.8,-0.3 0.6,-0.5 l -37,-52.8 0,52.6 c 0,0.5 0.3,0.6 1,0.6 l 13.5,0 c 0.3,0 0.3,2.5 0,2.5 l -48.8,0 c -0.3,0 -0.3,-2.5 0,-2.5 l 13.7,0 c 0.3,0 0.6,-0.2 0.6,-0.6 l 0,-106.3 c 0,-0.5 -0.3,-0.6 -0.6,-0.6 l -13.7,0 c -0.3,0 -0.3,-2.5 0,-2.5 l 48.8,0 c 0.3,0 0.3,2.5 0,2.5 l -13.5,0 c -0.6,0 -1,0.2 -1,0.6 l 0,52.8 38.8,-46.7 c 5.4,-6.2 5.1,-6.7 4.1,-6.7 l -12.4,0 c -0.3,0 -0.3,-2.5 0,-2.5 l 30.2,0 c 0.2,0 0.2,2.5 0,2.5 l -12.1,0 c -1.3,0 -1.6,0.6 -6.8,6.7 l -28.5,34.2 47.5,66.3 c 0.2,0.2 1,0.5 1.4,0.5 l 15,0 c 0.5,0 0.5,2.5 0,2.5 l -54.9,0 z m -72.6,2.3 c 0,0.5 -2.4,0.5 -2.5,0 L 399.4,307.3 c -0.2,-0.5 -0.5,-0.6 -1.3,-0.6 l -14.3,0 c -0.3,0 -0.3,-2.5 0,-2.5 l 53.1,0 c 0.3,0 0.3,2.5 0,2.5 l -15.4,0 c -0.6,0 -1,0.2 -0.8,0.6 l 39.6,97.5 -11.8,14.4 z M 480,226.7 c -74.7,0 -135.2,60.5 -135.2,135.2 0,74.7 60.5,135.2 135.2,135.2 74.7,0 135.2,-60.5 135.2,-135.2 0,-74.7 -60.5,-135.2 -135.2,-135.2"
       id="path3345"
       style="fill:#ffffff" /></g>
</svg>
