<?xml version="1.0" encoding="UTF-8" standalone="no"?>
<!-- Generator: Adobe Illustrator 18.0.0, SVG Export Plug-In . SVG Version: 6.00 Build 0)  -->

<svg
   xmlns:dc="http://purl.org/dc/elements/1.1/"
   xmlns:cc="http://creativecommons.org/ns#"
   xmlns:rdf="http://www.w3.org/1999/02/22-rdf-syntax-ns#"
   xmlns:svg="http://www.w3.org/2000/svg"
   xmlns="http://www.w3.org/2000/svg"
   xmlns:xlink="http://www.w3.org/1999/xlink"
   xmlns:sodipodi="http://sodipodi.sourceforge.net/DTD/sodipodi-0.dtd"
   xmlns:inkscape="http://www.inkscape.org/namespaces/inkscape"
   version="1.1"
   id="Layer_1"
   x="0px"
   y="0px"
   viewBox="0 0 778 506.70001"
   xml:space="preserve"
   inkscape:version="0.91pre4 r13712"
   sodipodi:docname="vk_logo_text_sm.svg"
   width="778"
   height="506.70001"><metadata
     id="metadata73"><rdf:RDF><cc:Work
         rdf:about=""><dc:format>image/svg+xml</dc:format><dc:type
           rdf:resource="http://purl.org/dc/dcmitype/StillImage" /><dc:title></dc:title></cc:Work></rdf:RDF></metadata><defs
     id="defs71" /><sodipodi:namedview
     pagecolor="#ffffff"
     bordercolor="#666666"
     borderopacity="1"
     objecttolerance="10"
     gridtolerance="10"
     guidetolerance="10"
     id="namedview69"
     showgrid="false"
     inkscape:zoom="0.24583333"
     inkscape:cx="606.10169"
     inkscape:cy="480"
     inkscape:window-x="0"
     inkscape:window-y="0"
     inkscape:window-maximized="0"
     inkscape:current-layer="Layer_1"
     fit-margin-top="0"
     fit-margin-left="0"
     fit-margin-right="0"
     fit-margin-bottom="0" /><g
     id="g3"
     transform="translate(-91,-226.7)"><defs
       id="defs5"><rect
         id="SVGID_1_"
         x="91"
         y="226.7"
         width="778"
         height="506.70001" /></defs><clipPath
       id="SVGID_2_"><use
         xlink:href="#SVGID_1_"
         overflow="visible"
         id="use9"
         style="overflow:visible"
         x="0"
         y="0"
         width="100%"
         height="100%" /></clipPath><path
       clip-path="url(#SVGID_2_)"
       d="m 142.5,642.8 -19.8,-45.6 c -0.2,-0.4 -0.3,-0.8 -0.3,-1.3 0,-1.5 1.3,-2.9 2.9,-2.9 1.5,0 2.5,1 3,2.2 l 17.7,42.5 17.8,-42.6 c 0.5,-1 1.5,-2.1 2.9,-2.1 1.6,0 2.9,1.3 2.9,2.8 0,0.4 -0.1,0.8 -0.2,1.2 l -19.8,45.8 c -0.7,1.5 -1.7,2.4 -3.4,2.4 l -0.3,0 c -1.7,0 -2.8,-0.9 -3.4,-2.4"
       id="path11"
       inkscape:connector-curvature="0"
       style="fill:#ffffff" /><path
       clip-path="url(#SVGID_2_)"
       d="m 184,595.9 c 0,-1.6 1.3,-2.9 2.9,-2.9 1.6,0 2.9,1.3 2.9,2.9 l 0,46.1 c 0,1.6 -1.3,2.9 -2.9,2.9 -1.5,0 -2.9,-1.3 -2.9,-2.9 l 0,-46.1 z"
       id="path13"
       inkscape:connector-curvature="0"
       style="fill:#ffffff" /><path
       clip-path="url(#SVGID_2_)"
       d="m 205.4,619.1 0,-0.1 c 0,-14.5 10.8,-26.5 25.9,-26.5 8.3,0 13.5,2.7 18.3,6.7 0.6,0.5 1.2,1.3 1.2,2.3 0,1.5 -1.4,2.9 -2.9,2.9 -0.8,0 -1.5,-0.4 -1.9,-0.7 -4,-3.5 -8.4,-5.9 -14.7,-5.9 -11.3,0 -19.8,9.2 -19.8,21 l 0,0.1 c 0,11.9 8.6,21.1 19.8,21.1 6.4,0 10.8,-2.2 15.2,-6.2 0.4,-0.4 1.1,-0.8 1.8,-0.8 1.5,0 2.8,1.3 2.8,2.8 0,0.9 -0.4,1.6 -1,2 -5.1,4.6 -10.6,7.5 -19,7.5 -14.8,0.2 -25.7,-11.4 -25.7,-26.2"
       id="path15"
       inkscape:connector-curvature="0"
       style="fill:#ffffff" /><path
       clip-path="url(#SVGID_2_)"
       d="m 278.2,598.7 -14.9,0 c -1.5,0 -2.7,-1.2 -2.7,-2.6 0,-1.5 1.2,-2.7 2.7,-2.7 l 35.6,0 c 1.5,0 2.7,1.2 2.7,2.7 0,1.5 -1.2,2.6 -2.7,2.6 l -14.9,0 0,43.3 c 0,1.6 -1.3,2.9 -2.9,2.9 -1.6,0 -2.9,-1.3 -2.9,-2.9 l 0,-43.3 z"
       id="path17"
       inkscape:connector-curvature="0"
       style="fill:#ffffff" /><path
       clip-path="url(#SVGID_2_)"
       d="m 355.5,619.1 0,-0.1 c 0,-11.6 -8.5,-21.1 -20.2,-21.1 -11.7,0 -20.1,9.4 -20.1,21 l 0,0.1 c 0,11.6 8.5,21.1 20.2,21.1 11.7,0.1 20.1,-9.3 20.1,-21 m -46.3,0 0,-0.1 c 0,-14.1 10.6,-26.5 26.2,-26.5 15.6,0 26.1,12.2 26.1,26.4 l 0,0.1 c 0,14.1 -10.6,26.5 -26.2,26.5 -15.6,0 -26.1,-12.2 -26.1,-26.4"
       id="path19"
       inkscape:connector-curvature="0"
       style="fill:#ffffff" /><path
       clip-path="url(#SVGID_2_)"
       d="m 398.2,619.5 c 7.7,0 13.2,-4 13.2,-10.5 l 0,-0.2 c 0,-6.3 -4.8,-10.1 -13.1,-10.1 l -15.8,0 0,20.8 15.7,0 z m -21.6,-23.2 c 0,-1.6 1.3,-2.9 2.9,-2.9 l 19.2,0 c 6.3,0 11.3,1.9 14.6,5.1 2.5,2.5 3.9,6.1 3.9,10.1 l 0,0.1 c 0,8.4 -5.7,13.3 -13.7,14.9 l 12.7,16.4 c 0.6,0.7 0.9,1.3 0.9,2.1 0,1.5 -1.5,2.9 -2.9,2.9 -1.2,0 -2.1,-0.7 -2.7,-1.5 l -14.4,-18.7 -14.7,0 0,17.4 c 0,1.6 -1.3,2.9 -2.9,2.9 -1.5,0 -2.9,-1.3 -2.9,-2.9 l 0,-45.9 z"
       id="path21"
       inkscape:connector-curvature="0"
       style="fill:#ffffff" /><path
       clip-path="url(#SVGID_2_)"
       d="m 433,595.9 c 0,-1.6 1.3,-2.9 2.9,-2.9 1.6,0 2.9,1.3 2.9,2.9 l 0,46.1 c 0,1.6 -1.3,2.9 -2.9,2.9 -1.5,0 -2.9,-1.3 -2.9,-2.9 l 0,-46.1 z"
       id="path23"
       inkscape:connector-curvature="0"
       style="fill:#ffffff" /><path
       clip-path="url(#SVGID_2_)"
       d="m 489.8,625.8 -11.8,-26.2 -11.8,26.2 23.6,0 z m -36.2,15 20.8,-45.5 c 0.7,-1.6 1.8,-2.6 3.7,-2.6 l 0.3,0 c 1.8,0 2.9,1 3.6,2.6 l 20.8,45.4 c 0.2,0.5 0.4,1 0.4,1.5 0,1.5 -1.2,2.8 -2.8,2.8 -1.4,0 -2.3,-1 -2.9,-2.1 l -5.3,-11.8 -28.2,0 -5.3,11.9 c -0.5,1.2 -1.5,2 -2.8,2 -1.5,0 -2.6,-1.2 -2.6,-2.6 -0.1,-0.5 0,-1 0.3,-1.6"
       id="path25"
       inkscape:connector-curvature="0"
       style="fill:#ffffff" /><path
       clip-path="url(#SVGID_2_)"
       d="m 541.9,595.9 c 0,-1.6 1.3,-2.9 2.9,-2.9 1.6,0 2.9,1.3 2.9,2.9 l 0,28 29.2,-29.9 c 0.7,-0.6 1.3,-1 2.3,-1 1.5,0 2.8,1.4 2.8,2.9 0,0.8 -0.4,1.5 -1,2 l -18.2,18 19.5,24 c 0.5,0.7 0.8,1.2 0.8,2.1 0,1.5 -1.3,2.9 -2.9,2.9 -1.1,0 -1.8,-0.6 -2.3,-1.3 l -19.1,-23.8 -11.1,11.1 0,11.1 c 0,1.6 -1.3,2.9 -2.9,2.9 -1.5,0 -2.9,-1.3 -2.9,-2.9 l 0,-46.1 z"
       id="path27"
       inkscape:connector-curvature="0"
       style="fill:#ffffff" /><path
       clip-path="url(#SVGID_2_)"
       d="m 597.1,596 c 0,-1.5 1.3,-2.9 2.9,-2.9 l 0.8,0 c 1.3,0 2.1,0.7 2.9,1.7 l 31.1,39.7 0,-38.6 c 0,-1.5 1.2,-2.9 2.9,-2.9 1.5,0 2.8,1.3 2.8,2.9 l 0,46.3 c 0,1.5 -1.1,2.7 -2.6,2.7 l -0.3,0 c -1.2,0 -2.1,-0.7 -3,-1.8 l -31.8,-40.6 0,39.7 c 0,1.5 -1.2,2.9 -2.9,2.9 -1.5,0 -2.8,-1.3 -2.8,-2.9 l 0,-46.2 z"
       id="path29"
       inkscape:connector-curvature="0"
       style="fill:#ffffff" /><path
       clip-path="url(#SVGID_2_)"
       d="m 658.4,595.9 c 0,-1.6 1.3,-2.9 2.9,-2.9 1.6,0 2.9,1.3 2.9,2.9 l 0,46.1 c 0,1.6 -1.3,2.9 -2.9,2.9 -1.5,0 -2.9,-1.3 -2.9,-2.9 l 0,-46.1 z"
       id="path31"
       inkscape:connector-curvature="0"
       style="fill:#ffffff" /><path
       clip-path="url(#SVGID_2_)"
       d="m 679.8,619.1 0,-0.1 c 0,-14.1 10.3,-26.5 25.7,-26.5 7.8,0 12.8,2.1 17.5,5.5 0.7,0.5 1.2,1.3 1.2,2.3 0,1.6 -1.3,2.9 -2.9,2.9 -0.7,0 -1.2,-0.3 -1.8,-0.7 -3.7,-2.8 -7.8,-4.7 -14.2,-4.7 -11.3,0 -19.5,9.6 -19.5,21 l 0,0.1 c 0,12.2 7.8,21.3 20.3,21.3 5.9,0 11.3,-2.3 14.8,-5.1 l 0,-12.7 -13.8,0 c -1.4,0 -2.6,-1.2 -2.6,-2.6 0,-1.5 1.2,-2.6 2.6,-2.6 l 16.5,0 c 1.5,0 2.9,1.3 2.9,2.9 l 0,15.6 c 0,1.4 -0.7,2.6 -2,3.5 -4.7,3.4 -11,6.2 -18.6,6.2 -16.1,0.1 -26.1,-11.6 -26.1,-26.3"
       id="path33"
       inkscape:connector-curvature="0"
       style="fill:#ffffff" /><path
       clip-path="url(#SVGID_2_)"
       d="m 742.4,595.9 c 0,-1.6 1.3,-2.9 2.9,-2.9 1.6,0 2.9,1.3 2.9,2.9 l 0,20.2 29.6,0 0,-20.2 c 0,-1.6 1.3,-2.9 2.9,-2.9 1.5,0 2.9,1.3 2.9,2.9 l 0,46.1 c 0,1.6 -1.3,2.9 -2.9,2.9 -1.6,0 -2.9,-1.3 -2.9,-2.9 l 0,-20.5 -29.6,0 0,20.5 c 0,1.6 -1.3,2.9 -2.9,2.9 -1.5,0 -2.9,-1.3 -2.9,-2.9 l 0,-46.1 z"
       id="path35"
       inkscape:connector-curvature="0"
       style="fill:#ffffff" /><path
       clip-path="url(#SVGID_2_)"
       d="m 814.5,598.7 -14.9,0 c -1.5,0 -2.7,-1.2 -2.7,-2.6 0,-1.5 1.2,-2.7 2.7,-2.7 l 35.6,0 c 1.5,0 2.7,1.2 2.7,2.7 0,1.5 -1.2,2.6 -2.7,2.6 l -14.9,0 0,43.3 c 0,1.6 -1.3,2.9 -2.9,2.9 -1.6,0 -2.9,-1.3 -2.9,-2.9 l 0,-43.3 z"
       id="path37"
       inkscape:connector-curvature="0"
       style="fill:#ffffff" /><path
       clip-path="url(#SVGID_2_)"
       d="m 109.4,709.1 c 8.5,0 14.1,-4.5 14.1,-11.3 l 0,-0.1 c 0,-7.3 -5.5,-11.1 -13.8,-11.1 l -13,0 0,22.5 12.7,0 z M 91,684.2 c 0,-1.6 1.3,-2.9 2.9,-2.9 l 16.3,0 c 11.6,0 19.2,6.1 19.2,16.3 l 0,0.1 c 0,11.1 -9.2,16.8 -20.1,16.8 l -12.5,0 0,15.5 c 0,1.6 -1.3,2.9 -2.9,2.9 -1.5,0 -2.9,-1.3 -2.9,-2.9 l 0,-45.8 z"
       id="path39"
       inkscape:connector-curvature="0"
       style="fill:#ffffff" /><path
       clip-path="url(#SVGID_2_)"
       d="m 164.3,707.4 c 7.7,0 13.2,-3.9 13.2,-10.5 l 0,-0.1 c 0,-6.3 -4.8,-10.1 -13.1,-10.1 l -15.8,0 0,20.8 15.7,0 z m -21.5,-23.2 c 0,-1.6 1.3,-2.9 2.9,-2.9 l 19.2,0 c 6.3,0 11.3,1.9 14.6,5.1 2.5,2.5 4,6.1 4,10.1 l 0,0.1 c 0,8.4 -5.7,13.3 -13.7,14.9 l 12.7,16.4 c 0.6,0.7 1,1.3 1,2.1 0,1.5 -1.5,2.9 -2.9,2.9 -1.2,0 -2,-0.7 -2.7,-1.5 l -14.4,-18.7 -14.7,0 0,17.3 c 0,1.6 -1.3,2.9 -2.9,2.9 -1.5,0 -2.9,-1.3 -2.9,-2.9 l 0,-45.8 z"
       id="path41"
       inkscape:connector-curvature="0"
       style="fill:#ffffff" /><path
       clip-path="url(#SVGID_2_)"
       d="m 242.7,707 0,-0.1 c 0,-11.6 -8.5,-21.2 -20.2,-21.2 -11.7,0 -20.1,9.4 -20.1,21 l 0,0.1 c 0,11.6 8.5,21.2 20.2,21.2 11.7,0 20.1,-9.4 20.1,-21 m -46.3,0 0,-0.1 c 0,-14.1 10.6,-26.5 26.2,-26.5 15.6,0 26.1,12.2 26.1,26.4 l 0,0.1 c 0,14.1 -10.6,26.5 -26.2,26.5 -15.6,-0.1 -26.1,-12.3 -26.1,-26.4"
       id="path43"
       inkscape:connector-curvature="0"
       style="fill:#ffffff" /><path
       clip-path="url(#SVGID_2_)"
       d="m 282.3,709.1 c 8.5,0 14.1,-4.5 14.1,-11.3 l 0,-0.1 c 0,-7.3 -5.5,-11.1 -13.8,-11.1 l -13,0 0,22.5 12.7,0 z m -18.5,-24.9 c 0,-1.6 1.3,-2.9 2.9,-2.9 l 16.3,0 c 11.6,0 19.2,6.1 19.2,16.3 l 0,0.1 c 0,11.1 -9.2,16.8 -20.1,16.8 l -12.4,0 0,15.5 c 0,1.6 -1.3,2.9 -2.9,2.9 -1.5,0 -2.9,-1.3 -2.9,-2.9 l 0,-45.8 z"
       id="path45"
       inkscape:connector-curvature="0"
       style="fill:#ffffff" /><path
       clip-path="url(#SVGID_2_)"
       d="m 315.7,729.5 0,-45.4 c 0,-1.6 1.3,-2.9 2.9,-2.9 l 31.8,0 c 1.5,0 2.6,1.2 2.6,2.6 0,1.5 -1.2,2.6 -2.6,2.6 l -28.9,0 0,17.6 25.6,0 c 1.5,0 2.6,1.2 2.6,2.6 0,1.5 -1.2,2.6 -2.6,2.6 l -25.6,0 0,17.9 29.3,0 c 1.5,0 2.6,1.2 2.6,2.6 0,1.5 -1.2,2.6 -2.6,2.6 l -32.2,0 c -1.6,0.2 -2.9,-1.2 -2.9,-2.8"
       id="path47"
       inkscape:connector-curvature="0"
       style="fill:#ffffff" /><path
       clip-path="url(#SVGID_2_)"
       d="m 389.2,707.4 c 7.7,0 13.2,-3.9 13.2,-10.5 l 0,-0.1 c 0,-6.3 -4.8,-10.1 -13.1,-10.1 l -15.8,0 0,20.8 15.7,0 z m -21.6,-23.2 c 0,-1.6 1.3,-2.9 2.9,-2.9 l 19.2,0 c 6.3,0 11.3,1.9 14.6,5.1 2.5,2.5 4,6.1 4,10.1 l 0,0.1 c 0,8.4 -5.7,13.3 -13.7,14.9 l 12.7,16.4 c 0.6,0.7 1,1.3 1,2.1 0,1.5 -1.5,2.9 -2.9,2.9 -1.2,0 -2.1,-0.7 -2.7,-1.5 l -14.4,-18.7 -14.7,0 0,17.3 c 0,1.6 -1.3,2.9 -2.9,2.9 -1.5,0 -2.9,-1.3 -2.9,-2.9 l 0,-45.8 z"
       id="path49"
       inkscape:connector-curvature="0"
       style="fill:#ffffff" /><path
       clip-path="url(#SVGID_2_)"
       d="m 436.5,686.6 -14.9,0 c -1.5,0 -2.7,-1.2 -2.7,-2.6 0,-1.5 1.2,-2.7 2.7,-2.7 l 35.6,0 c 1.5,0 2.7,1.2 2.7,2.7 0,1.5 -1.2,2.6 -2.7,2.6 l -14.9,0 0,43.3 c 0,1.6 -1.3,2.9 -2.9,2.9 -1.6,0 -2.9,-1.3 -2.9,-2.9 l 0,-43.3 z"
       id="path51"
       inkscape:connector-curvature="0"
       style="fill:#ffffff" /><path
       clip-path="url(#SVGID_2_)"
       d="m 489.1,712.3 -19,-26.6 c -0.4,-0.6 -0.7,-1.2 -0.7,-2 0,-1.5 1.4,-2.9 3,-2.9 1.2,0 2.1,0.7 2.8,1.8 l 16.9,24.4 17.1,-24.4 c 0.7,-1 1.5,-1.8 2.7,-1.8 1.6,0 2.9,1.3 2.9,2.9 0,0.7 -0.4,1.5 -0.8,2.1 l -19,26.4 0,17.7 c 0,1.6 -1.3,2.9 -2.9,2.9 -1.6,0 -2.9,-1.3 -2.9,-2.9 l 0,-17.6 z"
       id="path53"
       inkscape:connector-curvature="0"
       style="fill:#ffffff" /><path
       clip-path="url(#SVGID_2_)"
       d="m 551.2,726.3 c -0.7,-0.4 -1.1,-1.2 -1.1,-2.2 0,-1.6 1.2,-2.9 2.8,-2.9 0.7,0 1.4,0.3 1.8,0.7 4.8,4.1 9.7,6.1 16.2,6.1 6.9,0 11.4,-3.7 11.4,-8.7 l 0,-0.1 c 0,-4.8 -2.6,-7.5 -13.3,-9.7 -11.8,-2.6 -17.2,-6.4 -17.2,-14.8 l 0,-0.1 c 0,-8 7.1,-14 16.8,-14 6.7,0 11.6,1.7 16.3,5.1 0.6,0.4 1.2,1.2 1.2,2.3 0,1.5 -1.2,2.8 -2.8,2.8 -0.7,0 -1.2,-0.1 -1.7,-0.5 -4.3,-3.1 -8.5,-4.5 -13.2,-4.5 -6.7,0 -10.9,3.7 -10.9,8.3 l 0,0.1 c 0,4.8 2.6,7.5 13.9,10 11.4,2.5 16.7,6.7 16.7,14.5 l 0,0.1 c 0,8.8 -7.3,14.5 -17.5,14.5 -7.5,-0.1 -13.7,-2.4 -19.4,-7"
       id="path55"
       inkscape:connector-curvature="0"
       style="fill:#ffffff" /><path
       clip-path="url(#SVGID_2_)"
       d="m 602.8,729.5 0,-45.4 c 0,-1.6 1.3,-2.9 2.9,-2.9 l 31.8,0 c 1.5,0 2.6,1.2 2.6,2.6 0,1.5 -1.2,2.6 -2.6,2.6 l -28.9,0 0,17.6 25.6,0 c 1.5,0 2.6,1.2 2.6,2.6 0,1.5 -1.2,2.6 -2.6,2.6 l -25.6,0 0,17.9 29.3,0 c 1.5,0 2.6,1.2 2.6,2.6 0,1.5 -1.2,2.6 -2.6,2.6 l -32.2,0 c -1.6,0.2 -2.9,-1.2 -2.9,-2.8"
       id="path57"
       inkscape:connector-curvature="0"
       style="fill:#ffffff" /><path
       clip-path="url(#SVGID_2_)"
       d="m 687.8,713.7 -11.8,-26.2 -11.8,26.2 23.6,0 z m -36.2,15 20.8,-45.4 c 0.7,-1.6 1.8,-2.6 3.7,-2.6 l 0.3,0 c 1.8,0 2.9,1 3.6,2.6 l 20.8,45.4 c 0.2,0.5 0.4,1 0.4,1.5 0,1.5 -1.2,2.8 -2.8,2.8 -1.4,0 -2.3,-0.9 -2.9,-2.1 l -5.3,-11.8 -28.2,0 -5.3,11.9 c -0.5,1.2 -1.5,2 -2.8,2 -1.5,0 -2.6,-1.2 -2.6,-2.6 -0.1,-0.6 0,-1.2 0.3,-1.7"
       id="path59"
       inkscape:connector-curvature="0"
       style="fill:#ffffff" /><path
       clip-path="url(#SVGID_2_)"
       d="m 736.6,707.4 c 7.7,0 13.2,-3.9 13.2,-10.5 l 0,-0.1 c 0,-6.3 -4.8,-10.1 -13.1,-10.1 l -15.8,0 0,20.8 15.7,0 z m -21.5,-23.2 c 0,-1.6 1.3,-2.9 2.9,-2.9 l 19.2,0 c 6.3,0 11.3,1.9 14.6,5.1 2.5,2.5 3.9,6.1 3.9,10.1 l 0,0.1 c 0,8.4 -5.7,13.3 -13.7,14.9 l 12.7,16.4 c 0.6,0.7 0.9,1.3 0.9,2.1 0,1.5 -1.5,2.9 -2.9,2.9 -1.2,0 -2.1,-0.7 -2.7,-1.5 l -14.4,-18.7 -14.7,0 0,17.3 c 0,1.6 -1.3,2.9 -2.9,2.9 -1.5,0 -2.9,-1.3 -2.9,-2.9 l 0,-45.8 z"
       id="path61"
       inkscape:connector-curvature="0"
       style="fill:#ffffff" /><path
       clip-path="url(#SVGID_2_)"
       d="m 768.6,707 0,-0.1 c 0,-14.5 10.8,-26.5 25.9,-26.5 8.3,0 13.5,2.7 18.3,6.7 0.6,0.5 1.2,1.3 1.2,2.3 0,1.5 -1.4,2.9 -2.9,2.9 -0.8,0 -1.5,-0.4 -1.9,-0.7 -4,-3.5 -8.4,-5.9 -14.7,-5.9 -11.3,0 -19.8,9.2 -19.8,21 l 0,0.1 c 0,11.9 8.6,21.2 19.8,21.2 6.4,0 10.8,-2.2 15.2,-6.2 0.4,-0.4 1.1,-0.8 1.8,-0.8 1.5,0 2.8,1.3 2.8,2.8 0,0.9 -0.4,1.6 -1,2 -5.1,4.6 -10.6,7.5 -19,7.5 -14.7,0 -25.7,-11.6 -25.7,-26.3"
       id="path63"
       inkscape:connector-curvature="0"
       style="fill:#ffffff" /><path
       clip-path="url(#SVGID_2_)"
       d="m 827.9,683.8 c 0,-1.6 1.3,-2.9 2.9,-2.9 1.6,0 2.9,1.3 2.9,2.9 l 0,20.2 29.6,0 0,-20.2 c 0,-1.6 1.3,-2.9 2.9,-2.9 1.5,0 2.9,1.3 2.9,2.9 l 0,46.1 c 0,1.6 -1.3,2.9 -2.9,2.9 -1.6,0 -2.9,-1.3 -2.9,-2.9 l 0,-20.5 -29.6,0 0,20.5 c 0,1.6 -1.3,2.9 -2.9,2.9 -1.5,0 -2.9,-1.3 -2.9,-2.9 l 0,-46.1 z"
       id="path65"
       inkscape:connector-curvature="0"
       style="fill:#ffffff" /><path
       clip-path="url(#SVGID_2_)"
       d="m 521.1,416.9 c -0.3,0 -0.3,-2.5 0,-2.5 l 14.1,0 c 0.6,0 0.8,-0.3 0.6,-0.5 l -37,-52.8 0,52.6 c 0,0.5 0.3,0.6 1,0.6 l 13.5,0 c 0.3,0 0.3,2.5 0,2.5 l -48.8,0 c -0.3,0 -0.3,-2.5 0,-2.5 l 13.7,0 c 0.3,0 0.6,-0.2 0.6,-0.6 l 0,-106.3 c 0,-0.5 -0.3,-0.6 -0.6,-0.6 l -13.7,0 c -0.3,0 -0.3,-2.5 0,-2.5 l 48.8,0 c 0.3,0 0.3,2.5 0,2.5 l -13.5,0 c -0.6,0 -1,0.2 -1,0.6 l 0,52.8 38.8,-46.7 c 5.4,-6.2 5.1,-6.7 4.1,-6.7 l -12.4,0 c -0.3,0 -0.3,-2.5 0,-2.5 l 30.2,0 c 0.2,0 0.2,2.5 0,2.5 l -12.1,0 c -1.3,0 -1.6,0.6 -6.8,6.7 l -28.5,34.2 47.5,66.3 c 0.2,0.2 1,0.5 1.4,0.5 l 15,0 c 0.5,0 0.5,2.5 0,2.5 l -54.9,0 z m -72.6,2.3 c 0,0.5 -2.4,0.5 -2.5,0 L 399.4,307.3 c -0.2,-0.5 -0.5,-0.6 -1.3,-0.6 l -14.3,0 c -0.3,0 -0.3,-2.5 0,-2.5 l 53.1,0 c 0.3,0 0.3,2.5 0,2.5 l -15.4,0 c -0.6,0 -1,0.2 -0.8,0.6 l 39.6,97.5 -11.8,14.4 z M 480,226.7 c -74.7,0 -135.2,60.5 -135.2,135.2 0,74.7 60.5,135.2 135.2,135.2 74.7,0 135.2,-60.5 135.2,-135.2 0,-74.7 -60.5,-135.2 -135.2,-135.2"
       id="path67"
       inkscape:connector-curvature="0"
       style="fill:#ffffff" /></g></svg>
