<?xml version="1.0" encoding="utf-8"?>
<!-- Generator: Adobe Illustrator 18.0.0, SVG Export Plug-In . SVG Version: 6.00 Build 0)  -->
<!DOCTYPE svg PUBLIC "-//W3C//DTD SVG 1.1//EN" "http://www.w3.org/Graphics/SVG/1.1/DTD/svg11.dtd">
<svg version="1.1" id="Layer_1" xmlns="http://www.w3.org/2000/svg" xmlns:xlink="http://www.w3.org/1999/xlink" x="0px" y="0px"
	 viewBox="0 0 960 960" enable-background="new 0 0 960 960" xml:space="preserve">
<g>
	<defs>
		<rect id="SVGID_1_" x="91" y="226.7" width="778" height="506.7"/>
	</defs>
	<clipPath id="SVGID_2_">
		<use xlink:href="#SVGID_1_"  overflow="visible"/>
	</clipPath>
	<path clip-path="url(#SVGID_2_)" fill="#FFFFFF" d="M521.1,416.9c-0.3,0-0.3-2.5,0-2.5h14.1c0.6,0,0.8-0.3,0.6-0.5l-37-52.8v52.6
		c0,0.5,0.3,0.6,1,0.6h13.5c0.3,0,0.3,2.5,0,2.5h-48.8c-0.3,0-0.3-2.5,0-2.5h13.7c0.3,0,0.6-0.2,0.6-0.6V307.4
		c0-0.5-0.3-0.6-0.6-0.6h-13.7c-0.3,0-0.3-2.5,0-2.5h48.8c0.3,0,0.3,2.5,0,2.5h-13.5c-0.6,0-1,0.2-1,0.6v52.8l38.8-46.7
		c5.4-6.2,5.1-6.7,4.1-6.7h-12.4c-0.3,0-0.3-2.5,0-2.5h30.2c0.2,0,0.2,2.5,0,2.5h-12.1c-1.3,0-1.6,0.6-6.8,6.7l-28.5,34.2l47.5,66.3
		c0.2,0.2,1,0.5,1.4,0.5H576c0.5,0,0.5,2.5,0,2.5H521.1z M448.5,419.2c0,0.5-2.4,0.5-2.5,0l-46.6-111.9c-0.2-0.5-0.5-0.6-1.3-0.6
		h-14.3c-0.3,0-0.3-2.5,0-2.5h53.1c0.3,0,0.3,2.5,0,2.5h-15.4c-0.6,0-1,0.2-0.8,0.6l39.6,97.5L448.5,419.2z M480,226.7
		c-74.7,0-135.2,60.5-135.2,135.2S405.3,497.1,480,497.1s135.2-60.5,135.2-135.2S554.7,226.7,480,226.7"/>
</g>
</svg>
