<?xml version="1.0" encoding="utf-8"?>
<!-- Generator: Adobe Illustrator 18.0.0, SVG Export Plug-In . SVG Version: 6.00 Build 0)  -->
<!DOCTYPE svg PUBLIC "-//W3C//DTD SVG 1.1//EN" "http://www.w3.org/Graphics/SVG/1.1/DTD/svg11.dtd">
<svg version="1.1" id="Layer_1" xmlns="http://www.w3.org/2000/svg" xmlns:xlink="http://www.w3.org/1999/xlink" x="0px" y="0px"
	 viewBox="0 0 960 960" enable-background="new 0 0 960 960" xml:space="preserve">
<g>
	<defs>
		<rect id="SVGID_1_" x="91" y="226.7" width="778" height="506.7"/>
	</defs>
	<clipPath id="SVGID_2_">
		<use xlink:href="#SVGID_1_"  overflow="visible"/>
	</clipPath>
	<path clip-path="url(#SVGID_2_)" fill="#FFFFFF" d="M142.5,642.8l-19.8-45.6c-0.2-0.4-0.3-0.8-0.3-1.3c0-1.5,1.3-2.9,2.9-2.9
		c1.5,0,2.5,1,3,2.2l17.7,42.5l17.8-42.6c0.5-1,1.5-2.1,2.9-2.1c1.6,0,2.9,1.3,2.9,2.8c0,0.4-0.1,0.8-0.2,1.2l-19.8,45.8
		c-0.7,1.5-1.7,2.4-3.4,2.4h-0.3C144.2,645.2,143.1,644.3,142.5,642.8"/>
	<path clip-path="url(#SVGID_2_)" fill="#FFFFFF" d="M184,595.9c0-1.6,1.3-2.9,2.9-2.9c1.6,0,2.9,1.3,2.9,2.9v46.1
		c0,1.6-1.3,2.9-2.9,2.9c-1.5,0-2.9-1.3-2.9-2.9V595.9z"/>
	<path clip-path="url(#SVGID_2_)" fill="#FFFFFF" d="M205.4,619.1V619c0-14.5,10.8-26.5,25.9-26.5c8.3,0,13.5,2.7,18.3,6.7
		c0.6,0.5,1.2,1.3,1.2,2.3c0,1.5-1.4,2.9-2.9,2.9c-0.8,0-1.5-0.4-1.9-0.7c-4-3.5-8.4-5.9-14.7-5.9c-11.3,0-19.8,9.2-19.8,21v0.1
		c0,11.9,8.6,21.1,19.8,21.1c6.4,0,10.8-2.2,15.2-6.2c0.4-0.4,1.1-0.8,1.8-0.8c1.5,0,2.8,1.3,2.8,2.8c0,0.9-0.4,1.6-1,2
		c-5.1,4.6-10.6,7.5-19,7.5C216.3,645.5,205.4,633.9,205.4,619.1"/>
	<path clip-path="url(#SVGID_2_)" fill="#FFFFFF" d="M278.2,598.7h-14.9c-1.5,0-2.7-1.2-2.7-2.6c0-1.5,1.2-2.7,2.7-2.7h35.6
		c1.5,0,2.7,1.2,2.7,2.7c0,1.5-1.2,2.6-2.7,2.6H284v43.3c0,1.6-1.3,2.9-2.9,2.9c-1.6,0-2.9-1.3-2.9-2.9V598.7z"/>
	<path clip-path="url(#SVGID_2_)" fill="#FFFFFF" d="M355.5,619.1V619c0-11.6-8.5-21.1-20.2-21.1c-11.7,0-20.1,9.4-20.1,21v0.1
		c0,11.6,8.5,21.1,20.2,21.1C347.1,640.2,355.5,630.8,355.5,619.1 M309.2,619.1V619c0-14.1,10.6-26.5,26.2-26.5
		c15.6,0,26.1,12.2,26.1,26.4v0.1c0,14.1-10.6,26.5-26.2,26.5C319.7,645.5,309.2,633.3,309.2,619.1"/>
	<path clip-path="url(#SVGID_2_)" fill="#FFFFFF" d="M398.2,619.5c7.7,0,13.2-4,13.2-10.5v-0.2c0-6.3-4.8-10.1-13.1-10.1h-15.8v20.8
		H398.2z M376.6,596.3c0-1.6,1.3-2.9,2.9-2.9h19.2c6.3,0,11.3,1.9,14.6,5.1c2.5,2.5,3.9,6.1,3.9,10.1v0.1c0,8.4-5.7,13.3-13.7,14.9
		l12.7,16.4c0.6,0.7,0.9,1.3,0.9,2.1c0,1.5-1.5,2.9-2.9,2.9c-1.2,0-2.1-0.7-2.7-1.5l-14.4-18.7h-14.7v17.4c0,1.6-1.3,2.9-2.9,2.9
		c-1.5,0-2.9-1.3-2.9-2.9V596.3z"/>
	<path clip-path="url(#SVGID_2_)" fill="#FFFFFF" d="M433,595.9c0-1.6,1.3-2.9,2.9-2.9c1.6,0,2.9,1.3,2.9,2.9v46.1
		c0,1.6-1.3,2.9-2.9,2.9c-1.5,0-2.9-1.3-2.9-2.9V595.9z"/>
	<path clip-path="url(#SVGID_2_)" fill="#FFFFFF" d="M489.8,625.8L478,599.6l-11.8,26.2H489.8z M453.6,640.8l20.8-45.5
		c0.7-1.6,1.8-2.6,3.7-2.6h0.3c1.8,0,2.9,1,3.6,2.6l20.8,45.4c0.2,0.5,0.4,1,0.4,1.5c0,1.5-1.2,2.8-2.8,2.8c-1.4,0-2.3-1-2.9-2.1
		l-5.3-11.8H464l-5.3,11.9c-0.5,1.2-1.5,2-2.8,2c-1.5,0-2.6-1.2-2.6-2.6C453.2,641.9,453.3,641.4,453.6,640.8"/>
	<path clip-path="url(#SVGID_2_)" fill="#FFFFFF" d="M541.9,595.9c0-1.6,1.3-2.9,2.9-2.9c1.6,0,2.9,1.3,2.9,2.9v28l29.2-29.9
		c0.7-0.6,1.3-1,2.3-1c1.5,0,2.8,1.4,2.8,2.9c0,0.8-0.4,1.5-1,2l-18.2,18l19.5,24c0.5,0.7,0.8,1.2,0.8,2.1c0,1.5-1.3,2.9-2.9,2.9
		c-1.1,0-1.8-0.6-2.3-1.3l-19.1-23.8l-11.1,11.1v11.1c0,1.6-1.3,2.9-2.9,2.9c-1.5,0-2.9-1.3-2.9-2.9V595.9z"/>
	<path clip-path="url(#SVGID_2_)" fill="#FFFFFF" d="M597.1,596c0-1.5,1.3-2.9,2.9-2.9h0.8c1.3,0,2.1,0.7,2.9,1.7l31.1,39.7v-38.6
		c0-1.5,1.2-2.9,2.9-2.9c1.5,0,2.8,1.3,2.8,2.9v46.3c0,1.5-1.1,2.7-2.6,2.7h-0.3c-1.2,0-2.1-0.7-3-1.8l-31.8-40.6v39.7
		c0,1.5-1.2,2.9-2.9,2.9c-1.5,0-2.8-1.3-2.8-2.9V596z"/>
	<path clip-path="url(#SVGID_2_)" fill="#FFFFFF" d="M658.4,595.9c0-1.6,1.3-2.9,2.9-2.9c1.6,0,2.9,1.3,2.9,2.9v46.1
		c0,1.6-1.3,2.9-2.9,2.9c-1.5,0-2.9-1.3-2.9-2.9V595.9z"/>
	<path clip-path="url(#SVGID_2_)" fill="#FFFFFF" d="M679.8,619.1V619c0-14.1,10.3-26.5,25.7-26.5c7.8,0,12.8,2.1,17.5,5.5
		c0.7,0.5,1.2,1.3,1.2,2.3c0,1.6-1.3,2.9-2.9,2.9c-0.7,0-1.2-0.3-1.8-0.7c-3.7-2.8-7.8-4.7-14.2-4.7c-11.3,0-19.5,9.6-19.5,21v0.1
		c0,12.2,7.8,21.3,20.3,21.3c5.9,0,11.3-2.3,14.8-5.1v-12.7h-13.8c-1.4,0-2.6-1.2-2.6-2.6c0-1.5,1.2-2.6,2.6-2.6h16.5
		c1.5,0,2.9,1.3,2.9,2.9v15.6c0,1.4-0.7,2.6-2,3.5c-4.7,3.4-11,6.2-18.6,6.2C689.8,645.5,679.8,633.8,679.8,619.1"/>
	<path clip-path="url(#SVGID_2_)" fill="#FFFFFF" d="M742.4,595.9c0-1.6,1.3-2.9,2.9-2.9c1.6,0,2.9,1.3,2.9,2.9v20.2h29.6v-20.2
		c0-1.6,1.3-2.9,2.9-2.9c1.5,0,2.9,1.3,2.9,2.9v46.1c0,1.6-1.3,2.9-2.9,2.9c-1.6,0-2.9-1.3-2.9-2.9v-20.5h-29.6v20.5
		c0,1.6-1.3,2.9-2.9,2.9c-1.5,0-2.9-1.3-2.9-2.9V595.9z"/>
	<path clip-path="url(#SVGID_2_)" fill="#FFFFFF" d="M814.5,598.7h-14.9c-1.5,0-2.7-1.2-2.7-2.6c0-1.5,1.2-2.7,2.7-2.7h35.6
		c1.5,0,2.7,1.2,2.7,2.7c0,1.5-1.2,2.6-2.7,2.6h-14.9v43.3c0,1.6-1.3,2.9-2.9,2.9c-1.6,0-2.9-1.3-2.9-2.9V598.7z"/>
	<path clip-path="url(#SVGID_2_)" fill="#FFFFFF" d="M109.4,709.1c8.5,0,14.1-4.5,14.1-11.3v-0.1c0-7.3-5.5-11.1-13.8-11.1h-13v22.5
		H109.4z M91,684.2c0-1.6,1.3-2.9,2.9-2.9h16.3c11.6,0,19.2,6.1,19.2,16.3v0.1c0,11.1-9.2,16.8-20.1,16.8H96.8v15.5
		c0,1.6-1.3,2.9-2.9,2.9c-1.5,0-2.9-1.3-2.9-2.9V684.2z"/>
	<path clip-path="url(#SVGID_2_)" fill="#FFFFFF" d="M164.3,707.4c7.7,0,13.2-3.9,13.2-10.5v-0.1c0-6.3-4.8-10.1-13.1-10.1h-15.8
		v20.8H164.3z M142.8,684.2c0-1.6,1.3-2.9,2.9-2.9h19.2c6.3,0,11.3,1.9,14.6,5.1c2.5,2.5,4,6.1,4,10.1v0.1c0,8.4-5.7,13.3-13.7,14.9
		l12.7,16.4c0.6,0.7,1,1.3,1,2.1c0,1.5-1.5,2.9-2.9,2.9c-1.2,0-2-0.7-2.7-1.5l-14.4-18.7h-14.7v17.3c0,1.6-1.3,2.9-2.9,2.9
		c-1.5,0-2.9-1.3-2.9-2.9V684.2z"/>
	<path clip-path="url(#SVGID_2_)" fill="#FFFFFF" d="M242.7,707v-0.1c0-11.6-8.5-21.2-20.2-21.2c-11.7,0-20.1,9.4-20.1,21v0.1
		c0,11.6,8.5,21.2,20.2,21.2C234.3,728,242.7,718.6,242.7,707 M196.4,707v-0.1c0-14.1,10.6-26.5,26.2-26.5
		c15.6,0,26.1,12.2,26.1,26.4v0.1c0,14.1-10.6,26.5-26.2,26.5C206.9,733.3,196.4,721.1,196.4,707"/>
	<path clip-path="url(#SVGID_2_)" fill="#FFFFFF" d="M282.3,709.1c8.5,0,14.1-4.5,14.1-11.3v-0.1c0-7.3-5.5-11.1-13.8-11.1h-13v22.5
		H282.3z M263.8,684.2c0-1.6,1.3-2.9,2.9-2.9H283c11.6,0,19.2,6.1,19.2,16.3v0.1c0,11.1-9.2,16.8-20.1,16.8h-12.4v15.5
		c0,1.6-1.3,2.9-2.9,2.9c-1.5,0-2.9-1.3-2.9-2.9V684.2z"/>
	<path clip-path="url(#SVGID_2_)" fill="#FFFFFF" d="M315.7,729.5v-45.4c0-1.6,1.3-2.9,2.9-2.9h31.8c1.5,0,2.6,1.2,2.6,2.6
		c0,1.5-1.2,2.6-2.6,2.6h-28.9V704h25.6c1.5,0,2.6,1.2,2.6,2.6c0,1.5-1.2,2.6-2.6,2.6h-25.6v17.9h29.3c1.5,0,2.6,1.2,2.6,2.6
		c0,1.5-1.2,2.6-2.6,2.6h-32.2C317,732.5,315.7,731.1,315.7,729.5"/>
	<path clip-path="url(#SVGID_2_)" fill="#FFFFFF" d="M389.2,707.4c7.7,0,13.2-3.9,13.2-10.5v-0.1c0-6.3-4.8-10.1-13.1-10.1h-15.8
		v20.8H389.2z M367.6,684.2c0-1.6,1.3-2.9,2.9-2.9h19.2c6.3,0,11.3,1.9,14.6,5.1c2.5,2.5,4,6.1,4,10.1v0.1c0,8.4-5.7,13.3-13.7,14.9
		l12.7,16.4c0.6,0.7,1,1.3,1,2.1c0,1.5-1.5,2.9-2.9,2.9c-1.2,0-2.1-0.7-2.7-1.5l-14.4-18.7h-14.7v17.3c0,1.6-1.3,2.9-2.9,2.9
		c-1.5,0-2.9-1.3-2.9-2.9V684.2z"/>
	<path clip-path="url(#SVGID_2_)" fill="#FFFFFF" d="M436.5,686.6h-14.9c-1.5,0-2.7-1.2-2.7-2.6c0-1.5,1.2-2.7,2.7-2.7h35.6
		c1.5,0,2.7,1.2,2.7,2.7c0,1.5-1.2,2.6-2.7,2.6h-14.9v43.3c0,1.6-1.3,2.9-2.9,2.9c-1.6,0-2.9-1.3-2.9-2.9V686.6z"/>
	<path clip-path="url(#SVGID_2_)" fill="#FFFFFF" d="M489.1,712.3l-19-26.6c-0.4-0.6-0.7-1.2-0.7-2c0-1.5,1.4-2.9,3-2.9
		c1.2,0,2.1,0.7,2.8,1.8l16.9,24.4l17.1-24.4c0.7-1,1.5-1.8,2.7-1.8c1.6,0,2.9,1.3,2.9,2.9c0,0.7-0.4,1.5-0.8,2.1l-19,26.4v17.7
		c0,1.6-1.3,2.9-2.9,2.9s-2.9-1.3-2.9-2.9V712.3z"/>
	<path clip-path="url(#SVGID_2_)" fill="#FFFFFF" d="M551.2,726.3c-0.7-0.4-1.1-1.2-1.1-2.2c0-1.6,1.2-2.9,2.8-2.9
		c0.7,0,1.4,0.3,1.8,0.7c4.8,4.1,9.7,6.1,16.2,6.1c6.9,0,11.4-3.7,11.4-8.7v-0.1c0-4.8-2.6-7.5-13.3-9.7
		c-11.8-2.6-17.2-6.4-17.2-14.8v-0.1c0-8,7.1-14,16.8-14c6.7,0,11.6,1.7,16.3,5.1c0.6,0.4,1.2,1.2,1.2,2.3c0,1.5-1.2,2.8-2.8,2.8
		c-0.7,0-1.2-0.1-1.7-0.5c-4.3-3.1-8.5-4.5-13.2-4.5c-6.7,0-10.9,3.7-10.9,8.3v0.1c0,4.8,2.6,7.5,13.9,10
		c11.4,2.5,16.7,6.7,16.7,14.5v0.1c0,8.8-7.3,14.5-17.5,14.5C563.1,733.2,556.9,730.9,551.2,726.3"/>
	<path clip-path="url(#SVGID_2_)" fill="#FFFFFF" d="M602.8,729.5v-45.4c0-1.6,1.3-2.9,2.9-2.9h31.8c1.5,0,2.6,1.2,2.6,2.6
		c0,1.5-1.2,2.6-2.6,2.6h-28.9V704h25.6c1.5,0,2.6,1.2,2.6,2.6c0,1.5-1.2,2.6-2.6,2.6h-25.6v17.9h29.3c1.5,0,2.6,1.2,2.6,2.6
		c0,1.5-1.2,2.6-2.6,2.6h-32.2C604.1,732.5,602.8,731.1,602.8,729.5"/>
	<path clip-path="url(#SVGID_2_)" fill="#FFFFFF" d="M687.8,713.7L676,687.5l-11.8,26.2H687.8z M651.6,728.7l20.8-45.4
		c0.7-1.6,1.8-2.6,3.7-2.6h0.3c1.8,0,2.9,1,3.6,2.6l20.8,45.4c0.2,0.5,0.4,1,0.4,1.5c0,1.5-1.2,2.8-2.8,2.8c-1.4,0-2.3-0.9-2.9-2.1
		l-5.3-11.8H662l-5.3,11.9c-0.5,1.2-1.5,2-2.8,2c-1.5,0-2.6-1.2-2.6-2.6C651.2,729.8,651.3,729.2,651.6,728.7"/>
	<path clip-path="url(#SVGID_2_)" fill="#FFFFFF" d="M736.6,707.4c7.7,0,13.2-3.9,13.2-10.5v-0.1c0-6.3-4.8-10.1-13.1-10.1h-15.8
		v20.8H736.6z M715.1,684.2c0-1.6,1.3-2.9,2.9-2.9h19.2c6.3,0,11.3,1.9,14.6,5.1c2.5,2.5,3.9,6.1,3.9,10.1v0.1
		c0,8.4-5.7,13.3-13.7,14.9l12.7,16.4c0.6,0.7,0.9,1.3,0.9,2.1c0,1.5-1.5,2.9-2.9,2.9c-1.2,0-2.1-0.7-2.7-1.5l-14.4-18.7h-14.7v17.3
		c0,1.6-1.3,2.9-2.9,2.9c-1.5,0-2.9-1.3-2.9-2.9V684.2z"/>
	<path clip-path="url(#SVGID_2_)" fill="#FFFFFF" d="M768.6,707v-0.1c0-14.5,10.8-26.5,25.9-26.5c8.3,0,13.5,2.7,18.3,6.7
		c0.6,0.5,1.2,1.3,1.2,2.3c0,1.5-1.4,2.9-2.9,2.9c-0.8,0-1.5-0.4-1.9-0.7c-4-3.5-8.4-5.9-14.7-5.9c-11.3,0-19.8,9.2-19.8,21v0.1
		c0,11.9,8.6,21.2,19.8,21.2c6.4,0,10.8-2.2,15.2-6.2c0.4-0.4,1.1-0.8,1.8-0.8c1.5,0,2.8,1.3,2.8,2.8c0,0.9-0.4,1.6-1,2
		c-5.1,4.6-10.6,7.5-19,7.5C779.6,733.3,768.6,721.7,768.6,707"/>
	<path clip-path="url(#SVGID_2_)" fill="#FFFFFF" d="M827.9,683.8c0-1.6,1.3-2.9,2.9-2.9c1.6,0,2.9,1.3,2.9,2.9V704h29.6v-20.2
		c0-1.6,1.3-2.9,2.9-2.9c1.5,0,2.9,1.3,2.9,2.9v46.1c0,1.6-1.3,2.9-2.9,2.9c-1.6,0-2.9-1.3-2.9-2.9v-20.5h-29.6v20.5
		c0,1.6-1.3,2.9-2.9,2.9c-1.5,0-2.9-1.3-2.9-2.9V683.8z"/>
	<path clip-path="url(#SVGID_2_)" fill="#FFFFFF" d="M521.1,416.9c-0.3,0-0.3-2.5,0-2.5h14.1c0.6,0,0.8-0.3,0.6-0.5l-37-52.8v52.6
		c0,0.5,0.3,0.6,1,0.6h13.5c0.3,0,0.3,2.5,0,2.5h-48.8c-0.3,0-0.3-2.5,0-2.5h13.7c0.3,0,0.6-0.2,0.6-0.6V307.4
		c0-0.5-0.3-0.6-0.6-0.6h-13.7c-0.3,0-0.3-2.5,0-2.5h48.8c0.3,0,0.3,2.5,0,2.5h-13.5c-0.6,0-1,0.2-1,0.6v52.8l38.8-46.7
		c5.4-6.2,5.1-6.7,4.1-6.7h-12.4c-0.3,0-0.3-2.5,0-2.5h30.2c0.2,0,0.2,2.5,0,2.5h-12.1c-1.3,0-1.6,0.6-6.8,6.7l-28.5,34.2l47.5,66.3
		c0.2,0.2,1,0.5,1.4,0.5H576c0.5,0,0.5,2.5,0,2.5H521.1z M448.5,419.2c0,0.5-2.4,0.5-2.5,0l-46.6-111.9c-0.2-0.5-0.5-0.6-1.3-0.6
		h-14.3c-0.3,0-0.3-2.5,0-2.5h53.1c0.3,0,0.3,2.5,0,2.5h-15.4c-0.6,0-1,0.2-0.8,0.6l39.6,97.5L448.5,419.2z M480,226.7
		c-74.7,0-135.2,60.5-135.2,135.2S405.3,497.1,480,497.1s135.2-60.5,135.2-135.2S554.7,226.7,480,226.7"/>
</g>
</svg>
